<?xml version="1.0" encoding="UTF-8"?>
<svg width="1024px" height="1024px" viewBox="0 0 1024 1024" version="1.1" xmlns="http://www.w3.org/2000/svg" xmlns:xlink="http://www.w3.org/1999/xlink">
    <!-- Generator: Sketch 59.1 (86144) - https://sketch.com -->
    <title>Untitled</title>
    <desc>Created with Sketch.</desc>
    <g id="Page-1" stroke="none" stroke-width="1" fill="none" fill-rule="evenodd">
        <g id="icon" fill-rule="nonzero">
            <rect id="Rectangle" fill="#FFFFFF" x="0" y="0" width="1024" height="1024"></rect>
            <g id="smartframe_logo_versionreduced" transform="translate(141.000000, 207.000000)" fill="#1382DD">
                <path d="M741.400431,462.161797 L711.008611,67.1653823 C708.609257,31.1839275 679.017223,2.39876365 646.22605,3.19835154 C646.22605,3.19835154 645.426265,3.19835154 645.426265,3.19835154 L68.7814855,0 L68.7814855,0 C67.181916,0 66.3821313,0 64.7825619,0 C28.7922497,0 0,28.7851638 0,64.7666186 C0,65.5662065 0,66.3657944 0,67.1653823 L0,67.1653823 L31.1916039,546.918113 C31.9913886,582.09998 60.7836383,610.085556 95.9741658,610.085556 C99.1733046,610.085556 102.372443,610.085556 106.371367,609.285968 L106.371367,609.285968 L685.415501,538.122646 L685.415501,538.122646 C718.206674,534.924294 743,506.938719 743,474.155615 C742.200215,470.157676 742.200215,467.758912 741.400431,462.161797 Z M664.621098,512.535834 L664.621098,512.535834 L131.164693,577.302452 L131.164693,577.302452 C127.965554,578.10204 124.766416,578.10204 121.567277,578.10204 C88.7761033,578.10204 62.3832078,552.515228 61.583423,521.3313 L32.7911733,89.553843 L32.7911733,89.553843 C32.7911733,88.7542551 32.7911733,87.9546672 32.7911733,87.1550794 C32.7911733,55.171564 53.5855759,29.5847517 91.1754575,30.3843396 C91.9752422,30.3843396 95.1743811,30.3843396 95.9741658,30.3843396 L95.9741658,30.3843396 L627.831001,30.3843396 C627.831001,30.3843396 628.630786,30.3843396 628.630786,30.3843396 C661.421959,30.3843396 687.814855,55.9711519 688.614639,88.7542551 L716.607104,444.570864 C716.607104,448.568803 716.607104,451.767155 716.607104,455.765094 C718.206674,484.550258 694.213132,509.337482 664.621098,512.535834 Z" id="Shape"></path>
                <g id="Group" transform="translate(326.094444, 291.421111)">
                    <path d="M137.636622,150.304952 C133.632678,156.708391 128.027156,162.311401 120.820056,166.313551 C114.413744,170.3157 106.405856,172.71699 98.3979667,174.31785 C89.5892889,175.91871 81.5814,176.71914 73.5735111,176.71914 C70.3703556,176.71914 67.1672,176.71914 62.3624667,175.91871 C57.5577333,175.11828 52.753,174.31785 47.1474778,173.51742 C41.5419556,172.71699 35.9364333,171.11613 31.1317,169.515271 C25.5261778,167.914411 20.7214444,165.513121 15.9167111,163.912261 C11.1119778,161.510971 7.90882222,159.109681 4.70566667,155.907961 C1.50251111,152.706242 0.701722222,149.504522 0.701722222,145.502372 C0.701722222,141.500222 2.3033,137.498072 5.50645556,134.296353 C8.70961111,131.094633 11.9127667,129.493773 16.7175,129.493773 C19.1198667,129.493773 21.5222333,130.294203 23.9246,131.895063 C27.9285444,134.296353 31.9324889,135.897213 36.7372222,138.298502 C40.7411667,139.899362 44.7451111,141.500222 48.7490556,142.300652 C52.753,143.101082 56.7569444,143.901512 61.5616778,144.701942 C65.5656222,145.502372 70.3703556,145.502372 75.1750889,145.502372 C78.3782444,145.502372 81.5814,145.502372 85.5853444,144.701942 C89.5892889,143.901512 93.5932333,143.101082 97.5971778,142.300652 C101.601122,140.699792 104.804278,139.098932 107.206644,136.697643 C109.609011,134.296353 111.210589,131.094633 111.210589,127.092483 C111.210589,121.489473 108.808222,117.487324 104.003489,115.086034 C99.1987556,111.884314 92.7924444,109.483024 85.5853444,107.081734 C78.3782444,104.680444 70.3703556,102.279155 61.5616778,99.8778647 C52.753,97.4765749 44.7451111,94.2748551 37.5380111,90.2727053 C30.3309111,86.2705556 23.9246,80.6675459 19.1198667,74.2641063 C14.3151333,67.8606667 11.9127667,59.0559372 11.9127667,47.8499179 C11.9127667,38.2447585 14.3151333,31.0408889 18.3190778,24.6374493 C22.3230222,18.2340097 27.9285444,14.2318599 34.3348556,10.2297101 C40.7411667,7.02799034 47.9482667,4.62670048 56.7569444,3.02584058 C64.7648333,1.42498068 72.7727222,0.624550725 79.9798222,0.624550725 C83.9837667,0.624550725 87.9877111,0.624550725 93.5932333,1.42498068 C98.3979667,2.22541063 103.2027,2.22541063 108.808222,3.82627053 C113.612956,4.62670048 118.417689,6.22756039 123.222422,7.02799034 C128.027156,8.62885024 132.0311,9.42928019 135.234256,11.83057 C138.437411,13.43143 140.839778,15.0322899 142.441356,17.4335797 C144.042933,19.8348696 145.644511,23.0365894 145.644511,26.2383092 C145.644511,30.2404589 144.042933,34.2426087 140.839778,37.4443285 C137.636622,40.6460483 133.632678,42.2469082 129.628733,42.2469082 C128.027156,42.2469082 125.624789,41.4464783 123.222422,40.6460483 C116.015322,38.2447585 108.808222,35.8434686 102.401911,35.0430386 C95.1948111,33.4421787 87.9877111,32.6417488 80.7806111,32.6417488 C78.3782444,32.6417488 74.3743,32.6417488 71.1711444,32.6417488 C67.1672,32.6417488 63.1632556,33.4421787 59.9601,34.2426087 C55.9561556,35.0430386 52.753,36.6438986 50.3506333,39.0451884 C47.9482667,41.4464783 46.3466889,43.8477681 46.3466889,47.8499179 C46.3466889,50.2512077 47.1474778,52.6524976 49.5498444,55.0537874 C51.9522111,57.4550773 54.3545778,59.0559372 57.5577333,61.4572271 C60.7608889,63.058087 64.7648333,65.4593768 68.7687778,66.2598068 C72.7727222,67.8606667 76.7766667,69.4615266 80.7806111,70.2619565 C84.7845556,71.0623865 87.9877111,72.6632464 91.1908667,73.4636763 C94.3940222,74.2641063 96.7963889,75.0645362 99.1987556,75.8649662 C105.605067,78.266256 112.011378,79.8671159 117.6169,82.2684058 C123.222422,84.6696957 128.827944,87.8714155 132.831889,91.0731353 C137.636622,95.075285 140.839778,99.0774348 143.242144,104.680444 C145.644511,110.283454 147.246089,116.686894 147.246089,123.890763 C144.042933,135.096783 141.640567,143.901512 137.636622,150.304952 Z" id="Path"></path>
                    <path d="M311.407811,31.8413188 C308.204656,35.0430386 304.200711,36.6438986 300.196767,36.6438986 L223.321033,36.6438986 L223.321033,72.6632464 L267.364422,72.6632464 C271.368367,72.6632464 275.372311,74.2641063 278.575467,77.4658261 C281.778622,80.6675459 283.3802,84.6696957 283.3802,88.6718454 C283.3802,92.6739952 281.778622,96.6761449 278.575467,99.8778647 C275.372311,103.079585 272.169156,104.680444 267.364422,104.680444 L223.321033,104.680444 L223.321033,159.109681 C223.321033,163.912261 221.719456,167.914411 218.5163,171.11613 C215.313144,174.31785 211.3092,175.91871 206.504467,175.91871 C201.699733,175.91871 197.695789,174.31785 194.492633,171.11613 C191.289478,167.914411 189.6879,163.912261 189.6879,159.109681 L189.6879,21.4357295 C189.6879,16.6331498 191.289478,12.631 194.492633,9.42928019 C197.695789,6.22756039 201.699733,4.62670048 206.504467,4.62670048 L300.997556,4.62670048 C305.0015,4.62670048 309.005444,6.22756039 312.2086,9.42928019 C315.411756,12.631 317.013333,15.8327198 317.013333,20.6352995 C315.411756,24.6374493 313.810178,28.639599 311.407811,31.8413188 Z" id="Path"></path>
                </g>
            </g>
        </g>
    </g>
</svg>